<?xml version="1.0" standalone="no"?>
<!DOCTYPE svg PUBLIC "-//W3C//DTD SVG 20010904//EN"
 "http://www.w3.org/TR/2001/REC-SVG-20010904/DTD/svg10.dtd">
<svg version="1.0" xmlns="http://www.w3.org/2000/svg"
 width="200.000000pt" height="200.000000pt" viewBox="0 0 200.000000 200.000000"
 preserveAspectRatio="xMidYMid meet">

<g transform="translate(0.000000,200.000000) scale(0.100000,-0.100000)"
fill="#000000" stroke="none">
<path d="M320 1390 c-11 -11 -20 -29 -20 -40 0 -41 34 -60 110 -60 76 0 110
19 110 60 0 41 -34 60 -110 60 -57 0 -74 -4 -90 -20z"/>
<path d="M322 1150 c-26 -24 -28 -47 -6 -78 13 -20 24 -22 94 -22 70 0 81 2
94 22 21 30 20 54 -4 78 -29 29 -147 29 -178 0z"/>
<path d="M982 1127 c-39 -40 -41 -69 -5 -96 32 -26 56 -20 100 22 l33 30 -30
18 c-16 10 -35 28 -42 39 -17 26 -18 26 -56 -13z"/>
<path d="M322 907 c-26 -28 -27 -45 -6 -75 13 -20 24 -22 94 -22 70 0 81 2 94
22 21 30 20 50 -4 76 -17 18 -32 22 -89 22 -58 0 -71 -3 -89 -23z"/>
<path d="M766 815 c-20 -20 -20 -45 -2 -70 12 -16 16 -17 30 -6 20 17 21 64 2
80 -11 9 -18 8 -30 -4z"/>
<path d="M1193 823 c-15 -5 -18 -79 -4 -87 20 -13 41 7 41 39 0 34 -16 55 -37
48z"/>
<path d="M920 757 c0 -34 66 -49 118 -28 41 17 45 47 5 36 -37 -9 -73 -9 -100
0 -17 6 -23 3 -23 -8z"/>
<path d="M322 667 c-26 -28 -27 -45 -6 -75 13 -20 24 -22 94 -22 70 0 81 2 94
22 22 31 20 51 -7 76 -19 18 -35 22 -88 22 -56 0 -69 -4 -87 -23z"/>
</g>
</svg>
